HIERARCHY
ROOT Hips
{
	OFFSET 0.000000 8.830580 0.000000
	CHANNELS 6 Xposition Yposition Zposition Zrotation Yrotation Xrotation 
	JOINT Spine
	{
		OFFSET 0.000000 0.010000 0.000000
		CHANNELS 3 Zrotation Yrotation Xrotation
		JOINT Spine1
		{
			OFFSET 0.000000 2.459130 0.000000
			CHANNELS 3 Zrotation Yrotation Xrotation
			JOINT Neck
			{
				OFFSET 0.000000 2.484630 0.000000
				CHANNELS 3 Zrotation Yrotation Xrotation
				JOINT Head_virtual
				{
					OFFSET 0.000000 0.000000 0.000000
					CHANNELS 3 Zrotation Yrotation Xrotation
					JOINT Head
					{
						OFFSET 0.000000 0.927525 0.000000
						CHANNELS 3 Zrotation Yrotation Xrotation
						End Site
						{
							OFFSET 0.000000 0.000000 0.000000
						}
					}
				}
				JOINT LeftUpArm_virtual
				{
					OFFSET 0.000000 0.000000 0.000000
					CHANNELS 3 Zrotation Yrotation Xrotation
					JOINT LeftUpArm
					{
						OFFSET 1.248820 0.000000 0.000000
						CHANNELS 3 Zrotation Yrotation Xrotation
						JOINT LeftForeArm
						{
							OFFSET 2.597580 0.000000 0.000000
							CHANNELS 3 Zrotation Yrotation Xrotation
							JOINT LeftHand
							{
								OFFSET 2.455420 0.000000 0.000000
								CHANNELS 3 Zrotation Yrotation Xrotation
								End Site
								{
									OFFSET 0.000000 0.000000 0.000000
								}
							}
						}
					}
				}
				JOINT RightUpArm_virtual
				{
					OFFSET -0.000000 -0.000000 -0.000000
					CHANNELS 3 Zrotation Yrotation Xrotation
					JOINT RightUpArm
					{
						OFFSET -1.248820 -0.000000 -0.000000
						CHANNELS 3 Zrotation Yrotation Xrotation
						JOINT RightForeArm
						{
							OFFSET -2.597580 -0.000000 -0.000000
							CHANNELS 3 Zrotation Yrotation Xrotation
							JOINT RightHand
							{
								OFFSET -2.455420 -0.000000 -0.000000
								CHANNELS 3 Zrotation Yrotation Xrotation
								End Site
								{
									OFFSET 0.000000 0.000000 0.000000
								}
							}
						}
					}
				}
			}
		}
	}
	JOINT LeftUpLeg
	{
		OFFSET 1.271939 0.000000 0.000000
		CHANNELS 3 Zrotation Yrotation Xrotation
		JOINT LeftLowLeg
		{
			OFFSET 0.000000 -4.342910 0.000000
			CHANNELS 3 Zrotation Yrotation Xrotation
			JOINT LeftFoot
			{
				OFFSET 0.000000 -4.487670 0.000000
				CHANNELS 3 Zrotation Yrotation Xrotation
				JOINT LeftToeBase
				{
					OFFSET 0.000000 0.000000 1.515070
					CHANNELS 3 Zrotation Yrotation Xrotation
					End Site
					{
						OFFSET 0.000000 0.000000 0.000000
					}
				}
			}
		}
	}
	JOINT RightUpLeg
	{
		OFFSET -1.271939 0.000000 0.000000
		CHANNELS 3 Zrotation Yrotation Xrotation
		JOINT RightLowLeg
		{
			OFFSET 0.000000 -4.342910 0.000000
			CHANNELS 3 Zrotation Yrotation Xrotation
			JOINT RightFoot
			{
				OFFSET 0.000000 -4.487670 0.000000
				CHANNELS 3 Zrotation Yrotation Xrotation
				JOINT RightToeBase
				{
					OFFSET 0.000000 0.000000 1.515070
					CHANNELS 3 Zrotation Yrotation Xrotation
					End Site
					{
						OFFSET 0.000000 0.000000 0.000000
					}
				}
			}
		}
	}
}
MOTION
Frames: 15
Frame Time: 0.041667
-16.858562 5.816271 40.492336 -172.079228 -0.051757 163.026293 12.951725 0.482795 1.841795 -17.137685 2.234557 36.685451 0.000000 0.000000 0.000000 13.826364 -46.170421 25.480903 20.735394 52.946479 -56.194171 -22.329599 -8.836260 -1.234480 -33.662899 -31.712999 46.072800 180.000000 -81.053902 -180.000000 51.686699 -5.577960 -3.012380 26.859900 -4.059460 -5.829530 -20.284599 17.359600 -1.828120 -180.000000 57.733002 -180.000000 -32.508301 23.141500 18.965300 2.708946 17.092597 -54.940553 0.000000 0.000000 89.004601 -1.291649 19.404778 -7.290922 0.000000 0.000000 -23.524510 9.337000 -14.520456 -54.261143 0.000000 0.000000 80.064903 13.778660 -17.927082 4.312020 0.000000 0.000000 -19.743560 
-16.861947 5.818046 40.484928 -171.775179 0.187331 162.979255 12.111641 -0.524440 1.120637 -15.569904 2.624829 38.058952 0.000000 0.000000 0.000000 14.126214 -46.291967 23.777001 20.540447 52.739424 -56.084161 -22.449699 -9.038480 -2.184590 -34.139900 -31.502800 46.082199 180.000000 -80.992302 -180.000000 51.919102 -5.522940 -3.426280 26.171700 -3.851180 -6.849310 -19.846800 17.723400 -1.583200 -180.000000 57.132004 -180.000000 -31.088100 22.206100 13.718100 3.081737 17.278869 -54.910287 0.000000 0.000000 89.211899 -1.346534 19.365851 -7.437701 0.000000 0.000000 -23.478130 9.693809 -14.603213 -54.088850 0.000000 0.000000 79.926102 13.663587 -17.792822 4.387234 0.000000 0.000000 -19.776590 
-16.870713 5.813383 40.480564 -171.529211 0.439025 162.936060 11.779256 -0.933163 1.377823 -15.077955 2.279729 37.630454 0.000000 0.000000 0.000000 13.136826 -45.938063 24.745043 19.558185 52.648527 -57.401463 -22.702200 -8.925010 -2.185650 -33.942501 -31.049700 45.855900 180.000000 -80.964699 -180.000000 52.021000 -5.818970 -3.371950 26.160900 -3.607530 -6.829350 -19.762199 18.046700 -0.517280 -180.000000 56.768997 -180.000000 -33.427799 19.887899 8.576110 3.362134 17.412364 -54.928685 0.000000 0.000000 89.458397 -1.389737 19.412274 -7.602638 0.000000 0.000000 -23.376620 9.962892 -14.660935 -54.023066 0.000000 0.000000 79.878799 13.516645 -17.653246 4.546728 0.000000 0.000000 -19.858520 
-16.880000 5.809252 40.475060 -171.279141 0.840536 163.001936 11.419773 -1.369110 1.331810 -14.392788 2.156441 37.557992 0.000000 0.000000 0.000000 12.534699 -45.724754 25.057215 18.810271 52.497338 -58.213084 -22.770800 -8.923090 -2.209390 -33.887699 -30.749800 45.505001 180.000000 -80.916397 -180.000000 52.031799 -5.995920 -3.399720 26.101999 -3.604150 -6.475170 -20.127100 18.828800 -0.200539 -180.000000 56.892998 -180.000000 -37.232300 17.469299 4.217370 3.667405 17.678305 -55.038646 0.000000 0.000000 89.751503 -1.433329 19.470763 -7.785251 0.000000 0.000000 -23.272620 10.304655 -14.572226 -54.033313 0.000000 0.000000 79.791702 13.369293 -17.503149 4.717688 0.000000 0.000000 -19.963320 
-16.893675 5.806920 40.468854 -171.065953 1.191450 163.058476 10.983027 -1.875531 1.239474 -13.582958 2.074730 37.616438 0.000000 0.000000 0.000000 12.160390 -45.649046 25.164377 17.875971 52.497858 -59.158449 -22.990801 -8.963590 -2.389870 -33.779202 -30.516001 45.368198 -180.000000 -80.853798 180.000000 52.108700 -6.008440 -3.382770 25.950100 -3.523700 -6.262180 -20.507000 19.521799 -0.342512 -180.000000 57.205002 -180.000000 -40.346802 15.279700 2.320290 3.904424 17.828946 -55.096586 0.000000 0.000000 89.989197 -1.482533 19.599866 -7.966216 0.000000 0.000000 -23.157840 10.565659 -14.562066 -54.020052 0.000000 0.000000 79.710098 13.269565 -17.291174 4.867158 0.000000 0.000000 -20.037510 
-16.909851 5.805443 40.464114 -170.831138 1.600698 163.060843 10.776049 -2.229827 1.229671 -13.127571 1.957701 37.630079 0.000000 0.000000 0.000000 11.866035 -45.543509 25.358136 17.058405 52.573313 -59.912323 -23.024000 -9.010710 -2.464610 -33.624699 -30.330400 45.131001 -180.000000 -80.803299 -180.000000 52.115898 -5.932830 -3.454240 25.994699 -3.427240 -5.958290 -21.022900 20.187500 -1.332630 180.000000 57.994003 180.000000 -42.047901 13.751500 2.407270 4.188627 17.980701 -55.079681 0.000000 0.000000 90.222603 -1.527964 19.760863 -8.168527 0.000000 0.000000 -22.987110 10.835558 -14.538858 -53.928805 0.000000 0.000000 79.572601 13.147063 -17.059336 5.068763 0.000000 0.000000 -20.118790 
-16.923420 5.803522 40.457405 -170.638007 2.093433 163.318388 10.523260 -2.487619 1.016858 -12.633588 1.941529 37.543574 0.000000 0.000000 0.000000 11.603490 -45.444390 25.609116 16.185634 52.705226 -60.707867 -23.024200 -9.017320 -2.518800 -33.573799 -30.214300 45.004002 180.000000 -80.796898 -180.000000 52.187000 -5.740700 -3.597540 25.980200 -3.303710 -5.996910 -21.272699 20.730801 -2.422160 180.000000 59.153999 -180.000000 -42.084301 13.123700 3.391720 4.400163 18.264412 -55.292285 0.000000 0.000000 90.464401 -1.593603 19.893625 -8.425622 0.000000 0.000000 -22.728870 11.152203 -14.311562 -54.098604 0.000000 0.000000 79.475403 13.074616 -16.868428 5.248801 0.000000 0.000000 -20.202040 
-16.931672 5.801570 40.449968 -170.397341 2.642212 163.898747 10.029358 -2.866868 0.460687 -11.554936 2.125118 37.478209 0.000000 0.000000 0.000000 11.281300 -45.359701 25.673657 15.613239 52.629722 -61.361985 -23.303400 -9.119780 -2.557590 -33.494301 -30.113600 44.926899 180.000000 -80.830200 -180.000000 52.298199 -5.618960 -3.799920 25.764999 -3.231180 -5.901460 -21.647400 21.053801 -3.846410 -180.000000 60.602997 -180.000000 -40.874901 12.997400 5.572290 4.609392 18.647938 -55.847596 0.000000 0.000000 90.750198 -1.696922 19.980117 -8.696101 0.000000 0.000000 -22.385100 11.638141 -13.966993 -54.556983 0.000000 0.000000 79.346298 12.992629 -16.697862 5.398929 0.000000 0.000000 -20.262010 
-16.952912 5.801267 40.445507 -170.216997 2.838465 163.793130 9.720481 -3.302062 0.611775 -10.700371 2.071596 37.398622 0.000000 0.000000 0.000000 10.847388 -45.229904 25.713960 15.442951 52.450839 -62.024020 -23.744400 -9.352640 -2.351180 -33.140400 -30.063101 44.585800 -180.000000 -80.781799 180.000000 52.335499 -5.602460 -3.954640 24.540199 -3.037260 -5.864490 -20.128000 20.324400 -6.713310 -180.000000 58.663002 -180.000000 -29.851000 1.893950 8.042140 4.781171 18.464103 -55.710629 0.000000 0.000000 90.892700 -1.815322 20.285746 -8.839772 0.000000 0.000000 -22.101060 11.721145 -14.149332 -54.377338 0.000000 0.000000 79.265999 13.012886 -16.378270 5.540572 0.000000 0.000000 -20.335040 
-16.972176 5.802791 40.440692 -170.023413 3.027412 163.789386 9.574278 -3.568525 0.568757 -10.217792 2.075887 37.511861 0.000000 0.000000 0.000000 10.803546 -45.143220 25.383261 15.310868 52.508493 -62.316489 -23.821600 -9.462440 -2.577470 -33.221298 -29.994699 44.703300 180.000000 -80.795197 -180.000000 52.454700 -5.619780 -3.842730 24.325300 -2.947890 -5.995030 -20.144400 20.094900 -7.425810 180.000000 59.360001 180.000000 -27.551901 -0.728495 10.461100 4.949378 18.318274 -55.659211 0.000000 0.000000 91.013802 -1.979203 20.500511 -9.010765 0.000000 0.000000 -21.690090 11.880185 -14.385838 -54.275655 0.000000 0.000000 79.145897 12.910740 -16.075315 5.676027 0.000000 0.000000 -20.358700 
-16.987403 5.803185 40.438603 -169.764107 3.204168 163.960830 9.477738 -3.734069 0.548809 -9.733404 2.098438 37.325690 0.000000 0.000000 0.000000 10.711207 -45.097255 25.324175 14.887862 52.673164 -62.991675 -24.014299 -9.530600 -2.533160 -33.138000 -30.032900 44.672199 180.000000 -80.813797 -180.000000 52.493099 -5.732800 -3.787750 24.226400 -2.916980 -5.998480 -20.049700 19.649300 -8.094080 -180.000000 59.555000 -180.000000 -23.916100 -3.403650 13.069200 5.135318 18.196905 -55.848922 0.000000 0.000000 91.160500 -2.118240 20.689108 -9.105518 0.000000 0.000000 -21.119910 12.188584 -14.611110 -54.347352 0.000000 0.000000 78.976501 12.686894 -15.866367 5.841978 0.000000 0.000000 -20.435610 
-17.001143 5.805567 40.435067 -169.500636 3.222186 163.965396 9.337101 -3.956552 0.616043 -9.258463 2.104666 37.365309 0.000000 0.000000 0.000000 10.954118 -45.177915 24.783155 13.954004 53.153391 -64.074073 -24.235800 -9.426420 -2.643230 -33.121101 -30.229200 44.815899 180.000000 -80.765099 -180.000000 52.485401 -5.668240 -3.839610 23.702299 -2.658000 -7.914480 -18.529600 19.224400 -6.627260 180.000000 59.248001 -180.000000 -19.551701 -3.564850 16.635401 5.335347 17.932696 -55.861455 0.000000 0.000000 91.256401 -2.272591 20.861249 -9.196492 0.000000 0.000000 -20.465740 12.379275 -14.917207 -54.253772 0.000000 0.000000 78.858803 12.626065 -15.628543 5.960077 0.000000 0.000000 -20.488900 
-17.009729 5.808160 40.430852 -169.176811 3.219533 163.986093 9.171180 -4.170713 0.572107 -8.703124 2.175601 37.456034 0.000000 0.000000 0.000000 11.086940 -45.011045 24.064049 12.641543 53.776749 -65.427545 -24.403099 -9.513090 -2.624670 -33.120399 -30.251900 44.740200 -180.000000 -80.696800 180.000000 52.521599 -5.731680 -3.798050 24.323099 -2.894680 -7.937730 -19.441601 19.143700 -6.048480 -180.000000 61.650002 -180.000000 -21.788200 7.428170 20.629999 5.611302 17.723471 -55.907721 0.000000 0.000000 91.372498 -2.427336 20.937783 -9.295392 0.000000 0.000000 -19.589180 12.639008 -15.170385 -54.152455 0.000000 0.000000 78.723503 12.620679 -15.457470 6.025369 0.000000 0.000000 -20.537930 
-17.013819 5.809567 40.426830 -168.835779 3.232225 164.116006 8.893288 -4.500439 0.437271 -7.863820 2.271042 37.518445 0.000000 0.000000 0.000000 10.853950 -44.404137 22.985556 11.273501 54.382428 -67.067423 -24.757900 -9.581680 -2.699450 -33.089199 -30.111500 44.655201 -180.000000 -80.564400 180.000000 52.465000 -5.766250 -3.888560 24.055799 -2.935330 -8.051510 -18.835699 18.546900 -6.646970 180.000000 61.171997 180.000000 -16.581400 9.461050 21.827999 5.890701 17.623264 -56.085737 0.000000 0.000000 91.506401 -2.509511 20.975501 -9.392809 0.000000 0.000000 -18.575020 12.973107 -15.339278 -54.166694 0.000000 0.000000 78.600197 12.607737 -15.346337 6.068157 0.000000 0.000000 -20.546400 
-17.017733 5.810102 40.424567 -168.497821 3.222852 164.155959 8.473552 -4.979249 0.327059 -6.708034 2.386691 37.692493 0.000000 0.000000 0.000000 10.338749 -43.520566 21.505887 9.941863 54.826293 -68.718207 -25.220400 -9.694250 -2.690130 -33.093498 -29.992300 44.418499 180.000000 -80.458603 -180.000000 52.573799 -5.787540 -3.878780 23.605000 -2.905140 -8.155980 -18.173100 17.987700 -7.383730 180.000000 60.488998 180.000000 -10.873500 10.114400 18.337500 6.182769 17.507640 -56.192437 0.000000 0.000000 91.631599 -2.589158 21.007995 -9.465482 0.000000 0.000000 -17.323810 13.258917 -15.470555 -54.106777 0.000000 0.000000 78.478699 12.617752 -15.297706 6.129167 0.000000 0.000000 -20.641270 
